<svg width="176" height="66" viewBox="0 0 176 66" fill="none" xmlns="http://www.w3.org/2000/svg">
<g filter="url(#filter0_ii)">
<path fill-rule="evenodd" clip-rule="evenodd" d="M60.7508 37.8628L37.8511 31.778C36.6025 31.4736 35.3397 32.2272 35.0138 33.4715L28.9157 56.3885C28.5844 57.6251 29.3175 58.8954 30.5531 59.226L53.4539 65.3111C54.6895 65.6417 55.9596 64.9073 56.2909 63.6708L62.3373 40.7005C62.6723 39.4793 61.9659 38.2157 60.7508 37.8628Z" fill="#FF589B"/>
</g>
<path d="M49.9105 43.5396C50.4888 44.0439 50.9339 44.7003 51.2049 45.4486C51.4215 46.0047 51.4684 46.6256 51.3395 47.2258C51.2675 47.5018 51.0986 47.7409 50.8688 47.8923C50.6461 48.0557 50.3714 48.1094 50.1172 48.0389C49.875 47.9974 49.6612 47.856 49.521 47.6448C49.3832 47.363 49.2871 47.0588 49.236 46.7427C49.1348 46.1458 48.8999 45.5893 48.551 45.12C48.1935 44.6971 47.7192 44.4066 47.1917 44.2873C46.3283 44.0239 45.3827 44.2299 44.6554 44.8403C43.7833 45.6613 43.1871 46.7644 42.9653 47.9684C42.7356 48.7472 42.6483 49.5605 42.7082 50.3628C42.7596 50.9861 42.9908 51.5697 43.3701 52.0338C43.7642 52.4089 44.2499 52.659 44.776 52.758C45.3535 52.9488 45.98 52.9361 46.565 52.7218C47.1404 52.4715 47.6389 52.0453 47.9961 51.4983C48.1476 51.2414 48.337 51.0115 48.5565 50.8181C48.7854 50.6464 49.0736 50.6006 49.33 50.6949C49.5928 50.7584 49.8156 50.9352 49.9467 51.1841C50.0846 51.4323 50.1156 51.7355 50.0318 52.0187C49.9121 52.4568 49.7106 52.8675 49.4393 53.2252C49.1201 53.6569 48.735 54.0285 48.3011 54.3233C47.7761 54.6905 47.1887 54.9384 46.5775 55.051C45.8524 55.1624 45.1195 55.1163 44.4228 54.9153C43.8789 54.7759 43.3541 54.5702 42.8584 54.3018C42.4241 54.0644 42.03 53.7539 41.6908 53.3817C41.3502 53.0025 41.0716 52.5643 40.8655 52.0844C40.6674 51.6167 40.5265 51.1218 40.4459 50.6116C40.3602 50.0743 40.3368 49.5251 40.3758 48.9764C40.4197 48.3897 40.5205 47.8073 40.6764 47.2382C40.9 46.3466 41.2678 45.4978 41.7626 44.7315C42.2017 44.0582 42.7646 43.4854 43.4147 43.0496C44.0429 42.6348 44.7413 42.3642 45.4637 42.2556C46.2147 42.144 46.9732 42.1895 47.6965 42.3897C48.5148 42.5807 49.2726 42.9742 49.9105 43.5396Z" fill="white"/>
<g filter="url(#filter1_ii)">
<path fill-rule="evenodd" clip-rule="evenodd" d="M38.1648 2.28519L44.381 25.2809C44.7197 26.5177 43.9994 27.7916 42.7719 28.1259L20.0137 34.2635C18.7861 34.5978 17.5162 33.8661 17.1772 32.6293L10.8967 9.62625C10.5579 8.38942 11.2782 7.11555 12.5058 6.78124L35.3284 0.650944C36.554 0.331739 37.814 1.05756 38.1648 2.28519Z" fill="#6648A7"/>
</g>
<path fill-rule="evenodd" clip-rule="evenodd" d="M34.4874 19.7609C34.8115 20.1105 35.0631 20.5117 35.2309 20.947C35.3139 21.2379 35.2602 21.5537 35.0823 21.8208C34.897 22.0849 34.6114 22.2806 34.2837 22.368C34.0941 22.4196 33.8961 22.4307 33.7058 22.4005C33.5365 22.3713 33.3788 22.3071 33.2451 22.2126C33.0683 22.0793 32.911 21.9263 32.7768 21.7567L32.3006 21.1906L31.2718 19.8812L25.778 21.2649L25.487 22.9766C25.4359 23.4481 25.3206 23.9156 25.144 24.3676C24.9835 24.6484 24.6863 24.8481 24.3474 24.9028C24.0078 24.9934 23.6499 24.9608 23.351 24.812C23.0535 24.6836 22.8377 24.4427 22.758 24.1502C22.7186 23.9749 22.7089 23.7937 22.7296 23.6127L22.7345 23.5504L22.7406 23.4768L22.7496 23.3718L22.7563 23.2961C22.7625 23.2264 22.7694 23.1511 22.777 23.0702C22.7853 22.9806 22.7945 22.8841 22.8044 22.7808L24.4388 13.1685C24.4852 12.8626 24.5678 12.5603 24.6852 12.2671C24.7896 12.0182 24.9558 11.7919 25.1704 11.6063C25.7032 11.1964 26.3996 11.0185 27.0632 11.1224C27.3393 11.1829 27.5925 11.3018 27.803 11.4693C28.0115 11.6329 28.1988 11.8169 28.3619 12.0186L29.0051 12.8553L34.4874 19.7609ZM26.7465 13.7678L26.006 19.2191L30.0399 18.2009L26.7465 13.7678Z" fill="white"/>
<g filter="url(#filter2_ii)">
<path fill-rule="evenodd" clip-rule="evenodd" d="M2.31539 36.2748H26.0025C27.2811 36.2748 28.3178 37.3176 28.3178 38.6042V62.4472C28.3178 63.7337 27.2813 64.7765 26.0025 64.7765H2.31539C1.03657 64.7765 0 63.7337 0 62.4472V38.6042C0 37.3176 1.03657 36.2748 2.31539 36.2748Z" fill="#7CC92B"/>
</g>
<path fill-rule="evenodd" clip-rule="evenodd" d="M16.8546 50.1255C17.9889 49.6851 18.7332 48.5494 18.7122 47.2909C18.7132 46.9279 18.6526 46.5676 18.5336 46.2264C18.4167 45.888 18.2433 45.5738 18.0215 45.2981C17.8029 45.0234 17.5412 44.789 17.2475 44.6049C16.8821 44.3776 16.4777 44.2263 16.0568 44.1593C15.5484 44.0785 15.0347 44.0414 14.5206 44.0479H10.5673C10.1384 43.9993 9.70886 44.1331 9.37648 44.4192C9.10484 44.7666 8.97651 45.2116 9.01925 45.657V55.3613C8.97578 55.805 9.09945 56.2487 9.36458 56.5991C9.69664 56.8956 10.1325 57.0345 10.5673 56.9829H14.3658C14.9203 56.9651 15.473 56.9112 16.021 56.8219C16.4704 56.767 16.911 56.6505 17.3309 56.4754C17.9188 56.2208 18.4204 55.7899 18.7717 55.2376C19.1305 54.6541 19.3168 53.9742 19.3076 53.2818C19.335 51.7504 18.3006 50.4196 16.8546 50.1255ZM11.5556 46.0407H13.5442C14.2369 46.0036 14.9297 46.113 15.5804 46.3626C16.0307 46.5887 16.2971 47.0831 16.2473 47.6004C16.25 47.892 16.1758 48.1787 16.0329 48.4297C15.8692 48.7622 15.5873 49.0153 15.247 49.1352C14.7753 49.277 14.2849 49.3396 13.7943 49.3209H11.496L11.5556 46.0407ZM16.7474 53.1085C16.7474 54.3793 15.8979 55.0148 14.1991 55.0148H11.496L11.5556 51.2518H14.1396C14.8255 51.2068 15.5099 51.3611 16.1163 51.6974C16.5534 52.0173 16.7938 52.5549 16.7474 53.1085Z" fill="white"/>
<path d="M80.0671 39.3201L84.8152 43.2638C85.4102 43.7657 85.7792 44.1481 85.922 44.411C86.0886 44.6739 86.1719 44.9249 86.1719 45.1639C86.1719 45.7375 85.803 46.5143 85.0651 47.4942C84.2559 48.4981 83.5419 49 82.9231 49C82.3995 49 81.6736 48.6534 80.7454 47.9603L80.3884 47.7093C79.841 47.2552 78.9961 46.4665 77.8537 45.3431C76.7113 44.1959 75.8426 43.3833 75.2476 42.9052V45.6658C75.2476 46.2155 75.2238 46.6338 75.1762 46.9206C75.1524 47.1835 75.0453 47.4942 74.8549 47.8528C74.5455 48.4742 73.6291 48.7849 72.1059 48.7849C70.6065 48.7849 69.6902 48.4622 69.357 47.8169C69.1904 47.4584 69.0833 47.1477 69.0357 46.8848C69.0119 46.5979 69 46.1797 69 45.63V24.1549C69 23.6052 69.0119 23.1989 69.0357 22.936C69.0833 22.6492 69.1904 22.3265 69.357 21.968C69.6902 21.3227 70.6184 21 72.1416 21C73.284 21 74.0932 21.2032 74.5693 21.6095C74.9739 21.9441 75.1881 22.4699 75.2119 23.1869C75.2357 23.402 75.2476 23.7367 75.2476 24.1908V35.5557C75.676 35.1972 76.3186 34.5877 77.1754 33.7273C78.056 32.8668 78.7105 32.2574 79.1389 31.8988L79.5673 31.612C80.4003 30.9667 81.1143 30.644 81.7093 30.644C82.3043 30.644 82.9826 31.134 83.7442 32.114C84.5296 33.07 84.9223 33.8229 84.9223 34.3726C84.9223 34.9223 84.482 35.5676 83.6014 36.3086L80.0671 39.3201Z" fill="#2C4862"/>
<path d="M87.4261 33.0461C87.4261 32.4964 87.438 32.0901 87.4618 31.8271C87.5094 31.5403 87.6165 31.2177 87.7831 30.8592C88.1163 30.2377 89.0445 29.927 90.5677 29.927C91.7101 29.927 92.5194 30.1302 92.9954 30.5365C93.4 30.8711 93.6142 31.385 93.638 32.0781C93.6618 32.3171 93.6737 32.6637 93.6737 33.1178V45.6658C93.6737 46.2155 93.6499 46.6338 93.6023 46.9206C93.5785 47.1835 93.4714 47.4942 93.281 47.8528C92.9716 48.4742 92.0553 48.7849 90.532 48.7849C89.0326 48.7849 88.1163 48.4622 87.7831 47.8169C87.6165 47.4584 87.5094 47.1477 87.4618 46.8848C87.438 46.6219 87.4261 46.2036 87.4261 45.63V33.0461ZM93.281 26.4136C93.1144 26.7482 92.805 26.9872 92.3528 27.1306C91.9005 27.274 91.2936 27.3457 90.532 27.3457C89.7942 27.3457 89.1992 27.274 88.747 27.1306C88.2948 26.9872 87.9735 26.7362 87.7831 26.3777C87.6165 26.0192 87.5094 25.7085 87.4618 25.4456C87.438 25.1588 87.4261 24.7405 87.4261 24.1908C87.4261 23.6411 87.438 23.2347 87.4618 22.9718C87.5094 22.685 87.6165 22.3743 87.7831 22.0397C88.1163 21.3944 89.0445 21.0717 90.5677 21.0717C92.0671 21.0717 92.9716 21.3944 93.281 22.0397C93.4714 22.3982 93.5785 22.7209 93.6023 23.0077C93.6499 23.2706 93.6737 23.6769 93.6737 24.2266C93.6737 24.7764 93.6499 25.1946 93.6023 25.4814C93.5785 25.7443 93.4714 26.0551 93.281 26.4136Z" fill="#2C4862"/>
<path d="M108.414 22.0397C108.604 21.6812 108.925 21.4302 109.378 21.2868C109.83 21.1434 110.425 21.0717 111.163 21.0717C111.924 21.0717 112.531 21.1434 112.983 21.2868C113.436 21.4302 113.745 21.6812 113.912 22.0397C114.102 22.3982 114.209 22.7209 114.233 23.0077C114.28 23.2706 114.304 23.6769 114.304 24.2266V45.63C114.304 46.1797 114.28 46.5979 114.233 46.8848C114.209 47.1477 114.102 47.4464 113.912 47.781C113.555 48.4264 112.543 48.749 110.877 48.749C109.235 48.749 108.319 48.1635 108.128 46.9923C107.129 48.1396 105.736 48.7132 103.951 48.7132C101.809 48.7132 99.8575 47.781 98.0963 45.9168C96.3351 44.0286 95.4545 41.8417 95.4545 39.356C95.4545 36.8463 96.3351 34.6475 98.0963 32.7593C99.8813 30.8711 101.833 29.927 103.951 29.927C105.712 29.927 107.081 30.5245 108.057 31.7196V24.1908C108.057 23.6411 108.069 23.2347 108.092 22.9718C108.14 22.685 108.247 22.3743 108.414 22.0397ZM102.63 41.507C103.249 42.1524 103.999 42.475 104.879 42.475C105.76 42.475 106.486 42.1524 107.057 41.507C107.652 40.8617 107.95 40.1566 107.95 39.3918C107.95 38.6031 107.664 37.8741 107.093 37.2049C106.545 36.5356 105.796 36.201 104.844 36.201C103.892 36.201 103.13 36.5356 102.559 37.2049C101.988 37.8502 101.702 38.5672 101.702 39.356C101.702 40.1447 102.011 40.8617 102.63 41.507Z" fill="#2C4862"/>
<path d="M126.751 29.927C128.87 29.927 130.809 30.8711 132.571 32.7593C134.356 34.6475 135.248 36.8463 135.248 39.356C135.248 41.8417 134.367 44.0286 132.606 45.9168C130.845 47.781 128.953 48.7132 126.93 48.7132C124.907 48.7132 123.467 48.1396 122.61 46.9923C122.42 48.1635 121.396 48.749 119.54 48.749C118.041 48.749 117.124 48.4264 116.791 47.781C116.624 47.4225 116.517 47.1118 116.47 46.8489C116.446 46.5621 116.434 46.1438 116.434 45.5941V24.1908C116.434 23.6411 116.446 23.2347 116.47 22.9718C116.517 22.685 116.624 22.3743 116.791 22.0397C117.124 21.3944 118.052 21.0717 119.576 21.0717C121.075 21.0717 121.979 21.3944 122.289 22.0397C122.479 22.3982 122.586 22.7209 122.61 23.0077C122.658 23.2706 122.682 23.6769 122.682 24.2266V31.6837C123.634 30.5126 124.99 29.927 126.751 29.927ZM123.61 41.507C124.205 42.1524 124.943 42.475 125.823 42.475C126.704 42.475 127.454 42.1524 128.072 41.507C128.691 40.8617 129.001 40.1447 129.001 39.356C129.001 38.5672 128.715 37.8502 128.144 37.2049C127.573 36.5356 126.811 36.201 125.859 36.201C124.907 36.201 124.145 36.5356 123.574 37.2049C123.027 37.8741 122.753 38.6031 122.753 39.3918C122.753 40.1566 123.039 40.8617 123.61 41.507Z" fill="#2C4862"/>
<path d="M149.057 31.8988C149.2 30.5604 150.14 29.8912 151.877 29.8912C152.805 29.8912 153.496 29.9629 153.948 30.1063C154.4 30.2497 154.709 30.5006 154.876 30.8592C155.066 31.2177 155.174 31.5403 155.197 31.8271C155.245 32.0901 155.269 32.4964 155.269 33.0461V45.5941C155.269 46.1438 155.245 46.5621 155.197 46.8489C155.174 47.1118 155.078 47.4225 154.912 47.781C154.579 48.4025 153.757 48.7132 152.448 48.7132C151.163 48.7132 150.294 48.5578 149.842 48.2471C149.414 47.9125 149.164 47.4345 149.093 46.8131C148.212 48.0798 146.736 48.7132 144.666 48.7132C142.619 48.7132 140.715 47.7691 138.954 45.8809C137.192 43.9927 136.312 41.8058 136.312 39.3201C136.312 36.8105 137.192 34.6236 138.954 32.7593C140.739 30.8711 142.69 29.927 144.809 29.927C145.618 29.927 146.356 30.0704 147.022 30.3572C147.688 30.644 148.152 30.9189 148.414 31.1818C148.676 31.4208 148.89 31.6598 149.057 31.8988ZM142.559 39.356C142.559 40.1447 142.869 40.8617 143.488 41.507C144.106 42.1285 144.856 42.4392 145.737 42.4392C146.617 42.4392 147.343 42.1165 147.914 41.4712C148.509 40.8259 148.807 40.1208 148.807 39.356C148.807 38.5672 148.521 37.8382 147.95 37.169C147.403 36.4998 146.653 36.1652 145.701 36.1652C144.773 36.1652 144.011 36.4998 143.416 37.169C142.845 37.8382 142.559 38.5672 142.559 39.356Z" fill="#2C4862"/>
<path d="M166.789 42.475H172.894C173.846 42.475 174.524 42.5945 174.929 42.8335C175.357 43.0726 175.643 43.4191 175.786 43.8732C175.929 44.3274 176 44.9249 176 45.6658C176 46.4067 175.929 47.0043 175.786 47.4584C175.643 47.9125 175.393 48.2352 175.036 48.4264C174.679 48.5937 174.358 48.7012 174.072 48.749C173.81 48.7729 173.406 48.7849 172.858 48.7849H159.971C159.138 48.7849 158.412 48.4742 157.793 47.8528C157.174 47.2313 156.865 46.4904 156.865 45.63C156.865 44.7695 157.174 44.0405 157.793 43.443C158.412 42.8216 159.364 41.9373 160.649 40.79C161.934 39.6428 163.1 38.615 164.147 37.7068C165.195 36.7746 165.766 36.2608 165.861 36.1652H160.827C159.471 36.1652 158.614 35.9381 158.257 35.484C157.852 34.9582 157.65 34.265 157.65 33.4046C157.65 32.5442 157.71 31.9108 157.829 31.5045C157.948 31.0743 158.09 30.7636 158.257 30.5723C158.424 30.3572 158.662 30.1899 158.971 30.0704C159.376 29.9509 159.994 29.8912 160.827 29.8912H172.43C173.263 29.8912 173.989 30.1899 174.608 30.7875C175.226 31.385 175.536 32.1379 175.536 33.0461C175.536 33.9304 175.179 34.7192 174.465 35.4123C173.751 36.1054 171.192 38.4597 166.789 42.475Z" fill="#2C4862"/>
<defs>
<filter id="filter0_ii" x="25.8361" y="28.7104" width="39.5844" height="39.6798" filterUnits="userSpaceOnUse" color-interpolation-filters="sRGB">
<feFlood flood-opacity="0" result="BackgroundImageFix"/>
<feBlend mode="normal" in="SourceGraphic" in2="BackgroundImageFix" result="shape"/>
<feColorMatrix in="SourceAlpha" type="matrix" values="0 0 0 0 0 0 0 0 0 0 0 0 0 0 0 0 0 0 127 0" result="hardAlpha"/>
<feOffset dx="3" dy="3"/>
<feGaussianBlur stdDeviation="2"/>
<feComposite in2="hardAlpha" operator="arithmetic" k2="-1" k3="1"/>
<feColorMatrix type="matrix" values="0 0 0 0 1 0 0 0 0 1 0 0 0 0 1 0 0 0 0.25 0"/>
<feBlend mode="normal" in2="shape" result="effect1_innerShadow"/>
<feColorMatrix in="SourceAlpha" type="matrix" values="0 0 0 0 0 0 0 0 0 0 0 0 0 0 0 0 0 0 127 0" result="hardAlpha"/>
<feOffset dx="-3" dy="-3"/>
<feGaussianBlur stdDeviation="2"/>
<feComposite in2="hardAlpha" operator="arithmetic" k2="-1" k3="1"/>
<feColorMatrix type="matrix" values="0 0 0 0 0.183333 0 0 0 0 0.183333 0 0 0 0 0.183333 0 0 0 0.13 0"/>
<feBlend mode="normal" in2="effect1_innerShadow" result="effect2_innerShadow"/>
</filter>
<filter id="filter1_ii" x="7.81302" y="-2.42419" width="39.6516" height="39.7687" filterUnits="userSpaceOnUse" color-interpolation-filters="sRGB">
<feFlood flood-opacity="0" result="BackgroundImageFix"/>
<feBlend mode="normal" in="SourceGraphic" in2="BackgroundImageFix" result="shape"/>
<feColorMatrix in="SourceAlpha" type="matrix" values="0 0 0 0 0 0 0 0 0 0 0 0 0 0 0 0 0 0 127 0" result="hardAlpha"/>
<feOffset dx="3" dy="3"/>
<feGaussianBlur stdDeviation="2"/>
<feComposite in2="hardAlpha" operator="arithmetic" k2="-1" k3="1"/>
<feColorMatrix type="matrix" values="0 0 0 0 1 0 0 0 0 1 0 0 0 0 1 0 0 0 0.25 0"/>
<feBlend mode="normal" in2="shape" result="effect1_innerShadow"/>
<feColorMatrix in="SourceAlpha" type="matrix" values="0 0 0 0 0 0 0 0 0 0 0 0 0 0 0 0 0 0 127 0" result="hardAlpha"/>
<feOffset dx="-3" dy="-3"/>
<feGaussianBlur stdDeviation="2"/>
<feComposite in2="hardAlpha" operator="arithmetic" k2="-1" k3="1"/>
<feColorMatrix type="matrix" values="0 0 0 0 0.183333 0 0 0 0 0.183333 0 0 0 0 0.183333 0 0 0 0.13 0"/>
<feBlend mode="normal" in2="effect1_innerShadow" result="effect2_innerShadow"/>
</filter>
<filter id="filter2_ii" x="-3" y="33.2748" width="34.3178" height="34.5017" filterUnits="userSpaceOnUse" color-interpolation-filters="sRGB">
<feFlood flood-opacity="0" result="BackgroundImageFix"/>
<feBlend mode="normal" in="SourceGraphic" in2="BackgroundImageFix" result="shape"/>
<feColorMatrix in="SourceAlpha" type="matrix" values="0 0 0 0 0 0 0 0 0 0 0 0 0 0 0 0 0 0 127 0" result="hardAlpha"/>
<feOffset dx="3" dy="3"/>
<feGaussianBlur stdDeviation="2"/>
<feComposite in2="hardAlpha" operator="arithmetic" k2="-1" k3="1"/>
<feColorMatrix type="matrix" values="0 0 0 0 1 0 0 0 0 1 0 0 0 0 1 0 0 0 0.25 0"/>
<feBlend mode="normal" in2="shape" result="effect1_innerShadow"/>
<feColorMatrix in="SourceAlpha" type="matrix" values="0 0 0 0 0 0 0 0 0 0 0 0 0 0 0 0 0 0 127 0" result="hardAlpha"/>
<feOffset dx="-3" dy="-3"/>
<feGaussianBlur stdDeviation="2"/>
<feComposite in2="hardAlpha" operator="arithmetic" k2="-1" k3="1"/>
<feColorMatrix type="matrix" values="0 0 0 0 0.183333 0 0 0 0 0.183333 0 0 0 0 0.183333 0 0 0 0.13 0"/>
<feBlend mode="normal" in2="effect1_innerShadow" result="effect2_innerShadow"/>
</filter>
</defs>
</svg>
