<svg width="128" height="128" viewBox="0 0 128 128" fill="none" xmlns="http://www.w3.org/2000/svg">
<g filter="url(#filter0_dii)">
<path d="M8.87776 74.292C-5.86842 48.5749 15.2342 20.6575 39.9623 6.28221C64.6903 -8.09305 104.459 3.33351 119.206 29.0506C133.952 54.7677 112.215 101.95 87.4872 116.325C62.7591 130.7 23.6239 100.009 8.87776 74.292Z" fill="#FF589B"/>
</g>
<path d="M81.2497 76C82.1938 76 83.0118 75.6883 83.7073 75.0728L71.808 63.1731C71.5225 63.3775 71.2458 63.5763 70.9844 63.7653C70.0939 64.4214 69.3712 64.9334 68.8162 65.3002C68.2613 65.6679 67.523 66.0427 66.6014 66.4253C65.6792 66.8084 64.8201 66.9994 64.0231 66.9994H63.9764C63.1793 66.9994 62.3202 66.8085 61.398 66.4253C60.4759 66.0427 59.7376 65.6679 59.1833 65.3002C58.6284 64.9334 57.906 64.4215 57.0151 63.7653C56.7668 63.5833 56.4914 63.3836 56.1937 63.1699L44.2922 75.0728C44.9875 75.6883 45.8061 76 46.7501 76H81.2497Z" fill="white"/>
<path d="M45.3674 55.6798C44.477 55.0862 43.6874 54.4063 43 53.6405V71.7449L53.488 61.257C51.3898 59.7922 48.6864 57.9352 45.3674 55.6798Z" fill="white"/>
<path d="M82.6563 55.6798C79.4639 57.8405 76.7507 59.7007 74.5162 61.2612L85 71.7454V53.6405C84.3278 54.3909 83.5467 55.0703 82.6563 55.6798Z" fill="white"/>
<path d="M81.2497 43H46.7502C45.5466 43 44.6213 43.4064 43.9731 44.2184C43.3243 45.0308 43.0005 46.0468 43.0005 47.2653C43.0005 48.2495 43.4302 49.3159 44.2894 50.4648C45.1485 51.6133 46.0627 52.5153 47.0315 53.1715C47.5626 53.5467 49.1643 54.6602 51.8364 56.5114C53.2789 57.5111 54.5333 58.3823 55.6113 59.1342C56.5302 59.7744 57.3226 60.3288 57.9769 60.7889C58.052 60.8416 58.1701 60.9261 58.3269 61.0382C58.4958 61.1595 58.7095 61.3135 58.9732 61.5039C59.481 61.8711 59.9028 62.168 60.2388 62.3948C60.5743 62.6216 60.9808 62.875 61.4577 63.1564C61.9342 63.4374 62.3836 63.6487 62.8055 63.7892C63.2274 63.9297 63.6179 64.0001 63.9772 64.0001H64.0239C64.3831 64.0001 64.7738 63.9297 65.1958 63.7892C65.6175 63.6487 66.0666 63.4378 66.5435 63.1564C67.0199 62.875 67.4259 62.6211 67.7625 62.3948C68.0984 62.168 68.5203 61.8712 69.0281 61.5039C69.2913 61.3135 69.505 61.1595 69.6739 61.0386C69.8308 60.926 69.9488 60.8421 70.0244 60.7889C70.534 60.4343 71.3283 59.8821 72.3962 59.1407C74.3392 57.7906 77.2009 55.8035 80.9931 53.1715C82.1336 52.3749 83.0865 51.4135 83.8523 50.2889C84.6168 49.1642 85 47.9845 85 46.7501C85 45.7188 84.6284 44.8363 83.8869 44.1013C83.1445 43.3672 82.2653 43 81.2497 43Z" fill="white"/>
<defs>
<filter id="filter0_dii" x="0" y="-3" width="128" height="131" filterUnits="userSpaceOnUse" color-interpolation-filters="sRGB">
<feFlood flood-opacity="0" result="BackgroundImageFix"/>
<feColorMatrix in="SourceAlpha" type="matrix" values="0 0 0 0 0 0 0 0 0 0 0 0 0 0 0 0 0 0 127 0"/>
<feOffset dy="4"/>
<feGaussianBlur stdDeviation="2"/>
<feColorMatrix type="matrix" values="0 0 0 0 0 0 0 0 0 0 0 0 0 0 0 0 0 0 0.1 0"/>
<feBlend mode="normal" in2="BackgroundImageFix" result="effect1_dropShadow"/>
<feBlend mode="normal" in="SourceGraphic" in2="effect1_dropShadow" result="shape"/>
<feColorMatrix in="SourceAlpha" type="matrix" values="0 0 0 0 0 0 0 0 0 0 0 0 0 0 0 0 0 0 127 0" result="hardAlpha"/>
<feOffset dx="3" dy="3"/>
<feGaussianBlur stdDeviation="2"/>
<feComposite in2="hardAlpha" operator="arithmetic" k2="-1" k3="1"/>
<feColorMatrix type="matrix" values="0 0 0 0 1 0 0 0 0 1 0 0 0 0 1 0 0 0 0.25 0"/>
<feBlend mode="normal" in2="shape" result="effect2_innerShadow"/>
<feColorMatrix in="SourceAlpha" type="matrix" values="0 0 0 0 0 0 0 0 0 0 0 0 0 0 0 0 0 0 127 0" result="hardAlpha"/>
<feOffset dx="-3" dy="-3"/>
<feGaussianBlur stdDeviation="2"/>
<feComposite in2="hardAlpha" operator="arithmetic" k2="-1" k3="1"/>
<feColorMatrix type="matrix" values="0 0 0 0 0.183333 0 0 0 0 0.183333 0 0 0 0 0.183333 0 0 0 0.13 0"/>
<feBlend mode="normal" in2="effect2_innerShadow" result="effect3_innerShadow"/>
</filter>
</defs>
</svg>
