<svg width="128" height="128" viewBox="0 0 128 128" fill="none" xmlns="http://www.w3.org/2000/svg">
<g filter="url(#filter0_dii)">
<path d="M62.605 118.724C34.1831 126.295 12.8844 98.8545 5.4863 71.4048C-1.91176 43.9551 19.2692 8.67222 47.6912 1.10076C76.1132 -6.4707 115.695 26.5219 123.093 53.9716C130.491 81.4213 91.027 111.152 62.605 118.724Z" fill="#7756BF"/>
</g>
<path d="M83.9809 71.5677C84.0657 72.2175 83.8678 72.7825 83.3881 73.2627L77.7562 78.8557C77.5021 79.1381 77.1705 79.3785 76.7611 79.576C76.3518 79.7738 75.9496 79.9009 75.5545 79.9574C75.5263 79.9574 75.4414 79.9646 75.3002 79.9787C75.1592 79.9928 74.9757 80 74.7499 80C74.2134 80 73.3452 79.9082 72.1454 79.7245C70.9457 79.5408 69.4778 79.0888 67.7418 78.3686C66.0053 77.6482 64.0363 76.5676 61.8345 75.1271C59.6326 73.6866 57.2894 71.7091 54.8052 69.1949C52.829 67.2457 51.1917 65.3813 49.8931 63.6017C48.5945 61.822 47.55 60.1765 46.7596 58.6652C45.9691 57.1539 45.3762 55.7839 44.981 54.5551C44.5858 53.3262 44.3176 52.2669 44.1764 51.3771C44.0353 50.4873 43.9788 49.7881 44.0071 49.2796C44.0353 48.7712 44.0494 48.4887 44.0494 48.4322C44.1059 48.0367 44.2329 47.6342 44.4305 47.2246C44.6281 46.815 44.8681 46.483 45.1504 46.2288L50.7823 40.5932C51.1775 40.1977 51.6292 40 52.1373 40C52.5043 40 52.829 40.1059 53.1113 40.3178C53.3936 40.5297 53.6335 40.791 53.8311 41.1017L58.3621 49.7034C58.6162 50.1553 58.6867 50.6497 58.5738 51.1864C58.4609 51.7231 58.2209 52.1751 57.8539 52.5424L55.779 54.6186C55.7226 54.6751 55.6732 54.7669 55.6308 54.894C55.5885 55.0212 55.5673 55.1271 55.5673 55.2118C55.6802 55.8051 55.9343 56.483 56.3295 57.2457C56.6683 57.9237 57.1905 58.75 57.8963 59.7245C58.602 60.6991 59.6042 61.8219 60.9028 63.0931C62.1732 64.3927 63.3024 65.4024 64.2904 66.1229C65.2783 66.843 66.1043 67.3728 66.7677 67.7118C67.4311 68.0508 67.9392 68.2556 68.292 68.326L68.8212 68.432C68.8777 68.432 68.9696 68.4108 69.0965 68.3685C69.2236 68.326 69.3153 68.2766 69.3718 68.2201L71.7854 65.7625C72.2939 65.3106 72.8864 65.0846 73.564 65.0846C74.0441 65.0846 74.425 65.1692 74.7073 65.3388H74.7495L82.9221 70.1693C83.5151 70.5368 83.8679 71.0028 83.9809 71.5677Z" fill="white"/>
<defs>
<filter id="filter0_dii" x="0" y="-3" width="128" height="131" filterUnits="userSpaceOnUse" color-interpolation-filters="sRGB">
<feFlood flood-opacity="0" result="BackgroundImageFix"/>
<feColorMatrix in="SourceAlpha" type="matrix" values="0 0 0 0 0 0 0 0 0 0 0 0 0 0 0 0 0 0 127 0"/>
<feOffset dy="4"/>
<feGaussianBlur stdDeviation="2"/>
<feColorMatrix type="matrix" values="0 0 0 0 0 0 0 0 0 0 0 0 0 0 0 0 0 0 0.1 0"/>
<feBlend mode="normal" in2="BackgroundImageFix" result="effect1_dropShadow"/>
<feBlend mode="normal" in="SourceGraphic" in2="effect1_dropShadow" result="shape"/>
<feColorMatrix in="SourceAlpha" type="matrix" values="0 0 0 0 0 0 0 0 0 0 0 0 0 0 0 0 0 0 127 0" result="hardAlpha"/>
<feOffset dx="3" dy="3"/>
<feGaussianBlur stdDeviation="2"/>
<feComposite in2="hardAlpha" operator="arithmetic" k2="-1" k3="1"/>
<feColorMatrix type="matrix" values="0 0 0 0 1 0 0 0 0 1 0 0 0 0 1 0 0 0 0.25 0"/>
<feBlend mode="normal" in2="shape" result="effect2_innerShadow"/>
<feColorMatrix in="SourceAlpha" type="matrix" values="0 0 0 0 0 0 0 0 0 0 0 0 0 0 0 0 0 0 127 0" result="hardAlpha"/>
<feOffset dx="-3" dy="-3"/>
<feGaussianBlur stdDeviation="2"/>
<feComposite in2="hardAlpha" operator="arithmetic" k2="-1" k3="1"/>
<feColorMatrix type="matrix" values="0 0 0 0 0.183333 0 0 0 0 0.183333 0 0 0 0 0.183333 0 0 0 0.13 0"/>
<feBlend mode="normal" in2="effect2_innerShadow" result="effect3_innerShadow"/>
</filter>
</defs>
</svg>
